<svg width="45" height="39" viewBox="0 0 45 39" fill="none" xmlns="http://www.w3.org/2000/svg">
<path d="M20.1422 18.1639C20.556 17.8078 21.1431 17.5768 21.913 17.5191V21.9362C20.9698 21.6379 20.3251 21.2915 19.969 20.9931C19.6129 20.637 19.4397 20.2232 19.4397 19.6362C19.4974 19.0492 19.7284 18.5777 20.1422 18.1639ZM37.3973 3.96903C36.6275 1.13969 34.3949 0.0810883 31.806 0.793235L8.94996 6.91385H38.1672L37.3973 3.96903ZM45 14.2182V33.8888C45 36.4198 42.9983 38.4216 40.4673 38.4216H4.53272C2.00171 38.4216 0 36.4198 0 33.8888V14.2182C0 11.6872 2.00171 9.68545 4.53272 9.68545H40.4577C42.9405 9.68535 45 11.7449 45 14.2182ZM29.3328 27.643C29.3328 26.1705 28.8613 25.0544 27.9181 24.2266C26.975 23.3989 25.5603 22.8121 23.6164 22.3981H23.5586V17.6247C24.8578 17.798 26.0896 18.3273 27.2059 19.0971L28.8516 16.7394C27.2059 15.623 25.4352 14.9686 23.549 14.8531V13.554H21.9033V14.7954C20.2577 14.8531 18.9585 15.3824 17.8999 16.3255C16.8991 17.2687 16.3698 18.4427 16.3698 19.9152C16.3698 21.3876 16.8413 22.5039 17.7267 23.2161C18.6121 23.9859 20.0267 24.5732 21.913 25.0445V29.9911C20.3828 29.7601 18.9681 28.9902 17.4957 27.7488L15.6095 29.9911C17.438 31.579 19.5552 32.5221 21.8552 32.7627V34.6491H23.5009V32.8206C25.2041 32.7627 26.6187 32.2334 27.6871 31.2905C28.8035 30.2992 29.3328 29.1155 29.3328 27.643ZM23.5586 25.4681V30.0585C24.3863 30.0007 25.031 29.7601 25.5026 29.356C25.974 28.9421 26.2051 28.4706 26.2051 27.8835C26.2051 27.2964 26.0319 26.8249 25.6758 26.4689C25.2716 26.113 24.6172 25.7664 23.5586 25.4681Z" fill="url(#paint0_linear)"/>
<defs>
<linearGradient id="paint0_linear" x1="22.5" y1="0.57843" x2="22.5" y2="38.4216" gradientUnits="userSpaceOnUse">
<stop stop-color="#FAFF0C"/>
<stop offset="1" stop-color="#FA6F0A"/>
</linearGradient>
</defs>
</svg>
