<svg width="19" height="19" viewBox="0 0 19 19" fill="none" xmlns="http://www.w3.org/2000/svg">
<path d="M9.53711 0C4.31916 0 0 4.24494 0 9.46289C0 14.6808 4.31916 19 9.53711 19C14.7551 19 19 14.6808 19 9.46289C19 4.24494 14.7551 0 9.53711 0ZM14.5469 10.5762H10.6504V14.5469C10.6504 15.1607 10.1505 15.6602 9.53711 15.6602C8.92332 15.6602 8.42383 15.1607 8.42383 14.5469V10.5762H4.45312C3.83934 10.5762 3.33984 10.0767 3.33984 9.46289C3.33984 8.8491 3.83934 8.34961 4.45312 8.34961H8.42383V4.45312C8.42383 3.83934 8.92332 3.33984 9.53711 3.33984C10.1505 3.33984 10.6504 3.83934 10.6504 4.45312V8.34961H14.5469C15.1603 8.34961 15.6602 8.8491 15.6602 9.46289C15.6602 10.0767 15.1603 10.5762 14.5469 10.5762Z" fill="url(#paint0_linear)"/>
<defs>
<linearGradient id="paint0_linear" x1="10" y1="19" x2="10" y2="1.85336e-07" gradientUnits="userSpaceOnUse">
<stop stop-color="#D16400"/>
<stop offset="1" stop-color="#FFC83A"/>
</linearGradient>
</defs>
</svg>
