<svg width="19" height="19" viewBox="0 0 21 21" fill="none" xmlns="http://www.w3.org/2000/svg">
<path d="M13.125 6.5625H1.3125C0.587631 6.5625 0 7.15013 0 7.875V19.6875C0 20.4124 0.587631 21 1.3125 21H13.125C13.8499 21 14.4375 20.4124 14.4375 19.6875V7.875C14.4375 7.15013 13.8499 6.5625 13.125 6.5625ZM13.125 19.6875H1.3125V7.875H13.125V19.6875Z" fill="#E38414"/>
<path d="M19.6875 0H7.875C7.15013 0 6.5625 0.587631 6.5625 1.3125V4.59375H7.875V1.3125H19.6875V13.125H16.4062V14.4375H19.6875C20.4124 14.4375 21 13.8499 21 13.125V1.3125C21 0.587631 20.4124 0 19.6875 0Z" fill="#E38414"/>
</svg>
