<svg width="20" height="20" viewBox="0 0 20 20" fill="none" xmlns="http://www.w3.org/2000/svg">
<path d="M16.6667 0C14.8287 0 13.3333 1.49535 13.3333 3.33332C13.3333 4.92762 15.6954 8.15438 16.2489 8.88879C16.2487 9.12602 16.2489 9.35895 16.2431 9.57274C16.237 9.80262 16.4185 9.9943 16.6488 10.0004C16.6524 10.0004 16.6561 10.0004 16.6602 10.0004C16.8848 10.0004 17.0703 9.82094 17.0764 9.59473C17.0822 9.37535 17.082 9.1359 17.0822 8.89191C17.6319 8.16254 20 4.92949 20 3.33332C20 1.49535 18.5046 0 16.6667 0ZM16.6667 4.16668C16.2073 4.16668 15.8333 3.79273 15.8333 3.33336C15.8333 2.87398 16.2073 2.50004 16.6667 2.50004C17.126 2.50004 17.5 2.87395 17.5 3.33332C17.5 3.79273 17.126 4.16668 16.6667 4.16668Z" fill="#E38414"/>
<path d="M12.7539 12.0088C12.0662 12.3991 11.6842 13.0765 11.4563 13.5518C11.3566 13.7593 11.444 14.0084 11.6516 14.1076C11.7098 14.1357 11.7712 14.1487 11.8314 14.1487C11.9868 14.1487 12.1358 14.0617 12.2074 13.9123C12.4967 13.3089 12.7921 12.9455 13.1656 12.7331C13.3654 12.6196 13.4358 12.3652 13.3219 12.1651C13.2088 11.9649 12.9553 11.8945 12.7539 12.0088Z" fill="#E38414"/>
<path d="M8.96198 18.0579C8.54448 18.3887 8.07006 18.6377 7.51096 18.8196C7.29206 18.8908 7.17241 19.126 7.24362 19.3449C7.301 19.5207 7.46417 19.6326 7.63995 19.6326C7.68268 19.6326 7.7262 19.6261 7.76893 19.6122C8.41467 19.4023 8.99002 19.0991 9.47956 18.7113C9.65983 18.5681 9.69034 18.3061 9.54752 18.1258C9.40346 17.946 9.14182 17.9138 8.96198 18.0579Z" fill="#E38414"/>
<path d="M11.3114 15.0171C11.0957 14.9333 10.8557 15.0403 10.7723 15.2551C10.5855 15.7377 10.352 16.3004 10.037 16.816C9.91695 17.0125 9.97922 17.2689 10.1754 17.3889C10.2433 17.4304 10.3182 17.45 10.3922 17.45C10.5326 17.45 10.6697 17.3792 10.7483 17.2506C11.0974 16.6785 11.3493 16.073 11.5494 15.5563C11.6325 15.3418 11.5259 15.1005 11.3114 15.0171Z" fill="#E38414"/>
<path d="M16.512 10.9774C16.3228 10.8493 16.0628 10.8985 15.9334 11.0889C15.7963 11.2916 15.5155 11.5703 14.6663 11.6464C14.4372 11.6671 14.2679 11.8693 14.2887 12.0988C14.3082 12.3153 14.4901 12.478 14.7033 12.478C14.7159 12.478 14.7286 12.4777 14.7412 12.4764C15.6433 12.3954 16.2589 12.0943 16.6235 11.556C16.7525 11.3656 16.7025 11.1064 16.512 10.9774Z" fill="#E38414"/>
<path d="M5.9873 19.1721C7.30203 17.77 10 14.5446 10 11.6667C10 8.86313 7.80355 6.66669 5 6.66669C2.19645 6.66669 0 8.86313 0 11.6667C0 15.3626 4.45578 19.6411 4.7048 19.8772C4.7048 19.8772 4.70582 19.8782 4.70629 19.8787C4.70766 19.88 4.71289 19.8851 4.71398 19.8861C4.73121 19.9025 4.7527 19.91 4.7718 19.9229C4.79543 19.9388 4.8168 19.9576 4.84355 19.9685C4.89375 19.9889 4.94664 20 5 20C5.30355 20 5.59203 19.9894 5.86547 19.9687C6.09496 19.9512 6.26707 19.7514 6.24957 19.5219C6.23707 19.3577 6.13078 19.2296 5.9873 19.1721ZM5 14.1667C3.62141 14.1667 2.5 13.0453 2.5 11.6667C2.5 10.2881 3.62141 9.16669 5 9.16669C6.37859 9.16669 7.5 10.2881 7.5 11.6667C7.5 13.0452 6.37859 14.1667 5 14.1667Z" fill="#E38414"/>
</svg>
