<svg width="19" height="19" viewBox="0 0 19 19" fill="none" xmlns="http://www.w3.org/2000/svg">
<g clip-path="url(#clip0)">
<path d="M18.5058 16.1547L11.0555 8.70437L2.35113 0H1.67088L1.53198 0.352947C1.16537 1.28454 1.00874 2.23736 1.07906 3.10828C1.15921 4.10103 1.53636 4.96052 2.16978 5.59394L8.96487 12.389L9.86114 11.4928L16.1432 18.5173C16.7681 19.1422 17.8437 19.1794 18.5058 18.5173C19.1572 17.8659 19.1572 16.8061 18.5058 16.1547Z" fill="#E38414"/>
<path d="M5.81608 10.8152L0.494184 16.1371C-0.15716 16.7885 -0.15716 17.8483 0.494184 18.4997C1.11295 19.1184 2.18337 19.1731 2.85675 18.4997L8.17868 13.1777L5.81608 10.8152Z" fill="#E38414"/>
<path d="M18.193 3.16354L15.1741 6.18239L14.3865 5.39485L17.4054 2.37597L16.6179 1.58843L13.599 4.60728L12.8115 3.81974L15.8304 0.800895L15.0429 0.0133972L11.1052 3.95107C10.6235 4.43279 10.3359 5.07241 10.2952 5.75218C10.2849 5.9244 10.2459 6.09381 10.1811 6.25493L12.739 8.81285C12.9002 8.74802 13.0696 8.70901 13.2418 8.69873C13.9216 8.65817 14.5612 8.37046 15.0429 7.88875L18.9806 3.95111L18.193 3.16354Z" fill="#E38414"/>
</g>
<defs>
<clipPath id="clip0">
<rect width="19" height="19" fill="white"/>
</clipPath>
</defs>
</svg>
