<svg width="14" height="14" viewBox="0 0 19 19" fill="none" xmlns="http://www.w3.org/2000/svg">
<path d="M12.635 9.49939L18.5129 15.3773C19.1624 16.0267 19.1624 17.0797 18.5129 17.7281L17.7293 18.5117C17.0797 19.1613 16.0267 19.1613 15.3783 18.5117L9.50061 12.634L3.6227 18.5129C2.97325 19.1624 1.92034 19.1624 1.2719 18.5129L0.487086 17.7293C-0.162362 17.0797 -0.162362 16.0267 0.487086 15.3783L6.36601 9.49939L0.488304 3.62169C-0.161347 2.97204 -0.161347 1.91912 0.488304 1.27069L1.2719 0.487086C1.92135 -0.162361 2.97427 -0.162361 3.6227 0.487086L9.50061 6.36499L15.3783 0.487086C16.028 -0.162361 17.0809 -0.162361 17.7293 0.487086L18.5129 1.27069C19.1624 1.92034 19.1624 2.97325 18.5129 3.62169L12.635 9.49939Z" fill="#E38414"/>
</svg>
