<svg width="16" height="18" viewBox="0 0 14 16" fill="none" xmlns="http://www.w3.org/2000/svg">
<path d="M12.25 2H9.5V1.5C9.5 0.671562 8.82844 0 8 0H6C5.17156 0 4.5 0.671562 4.5 1.5V2H1.75C1.05966 2 0.5 2.55966 0.5 3.25V4.25C0.5 4.52616 0.723844 4.75 1 4.75H13C13.2762 4.75 13.5 4.52616 13.5 4.25V3.25C13.5 2.55966 12.9403 2 12.25 2ZM5.5 1.5C5.5 1.22438 5.72437 1 6 1H8C8.27563 1 8.5 1.22438 8.5 1.5V2H5.5V1.5Z" fill="#E38414"/>
<path d="M1.44888 5.75C1.35966 5.75 1.28856 5.82456 1.29281 5.91369L1.70531 14.5712C1.74344 15.3725 2.40156 16 3.20344 16H10.7966C11.5984 16 12.2566 15.3725 12.2947 14.5712L12.7072 5.91369C12.7114 5.82456 12.6404 5.75 12.5511 5.75H1.44888ZM9.00001 7C9.00001 6.72375 9.22376 6.5 9.50001 6.5C9.77626 6.5 10 6.72375 10 7V13.5C10 13.7762 9.77626 14 9.50001 14C9.22376 14 9.00001 13.7762 9.00001 13.5V7ZM6.5 7C6.5 6.72375 6.72375 6.5 7 6.5C7.27626 6.5 7.50001 6.72375 7.50001 7V13.5C7.50001 13.7762 7.27626 14 7 14C6.72375 14 6.5 13.7762 6.5 13.5V7ZM4 7C4 6.72375 4.22375 6.5 4.5 6.5C4.77625 6.5 5 6.72375 5 7V13.5C5 13.7762 4.77625 14 4.5 14C4.22375 14 4 13.7762 4 13.5V7Z" fill="#E38414"/>
</svg>
