<svg width="21" height="21" viewBox="0 0 21 21" fill="none" xmlns="http://www.w3.org/2000/svg">
<path d="M20.5401 18.4949L18.7068 7.54315C18.5344 6.51053 17.6401 5.75585 16.5934 5.75585H13.839C14.1619 5.19314 14.3466 4.54127 14.3466 3.84709C14.3466 1.72589 12.6212 0 10.4995 0C8.37834 0 6.65245 1.72589 6.65245 3.84709C6.65245 4.54127 6.83714 5.19314 7.16012 5.75585H4.4057C3.35852 5.75585 2.46465 6.51144 2.29224 7.54406L0.459446 18.4971C0.355274 19.1181 0.530411 19.7572 0.937546 20.2376C1.34514 20.7184 1.94287 21 2.57337 21H18.4275C19.058 21 19.6558 20.7184 20.0634 20.2376C20.47 19.7563 20.6447 19.1163 20.5401 18.4949ZM10.5 2.24129C11.3852 2.24129 12.1058 2.96185 12.1058 3.84754C12.1058 4.73323 11.3852 5.45334 10.5 5.45334C9.61431 5.45334 8.89375 4.73278 8.89375 3.84709C8.89375 2.9614 9.61431 2.24129 10.5 2.24129Z" fill="#E38414"/>
</svg>
